HIERARCHY
ROOT Hips
{
    OFFSET 0.000000 0.000000 0.000000
    CHANNELS 6 Xposition Yposition Zposition Zrotation Xrotation Yrotation
    JOINT Spine
    {
        OFFSET -0.000000 8.249566 0.000000
        CHANNELS 3 Zrotation Xrotation Yrotation
        JOINT Spine1
        {
            OFFSET -0.000000 22.751984 0.000000
            CHANNELS 3 Zrotation Xrotation Yrotation
            JOINT Neck
            {
                OFFSET -0.000000 22.658548 2.059868
                CHANNELS 3 Zrotation Xrotation Yrotation
                JOINT Head
                {
                    OFFSET -0.000000 14.084625 -2.012089
                    CHANNELS 3 Zrotation Xrotation Yrotation
                    End Site
                    {
                        OFFSET -0.000000 25.151115 0.000000
                    }
                }
            }
            JOINT LeftShoulder
            {
                OFFSET 4.014710 20.418900 0.142539
                CHANNELS 3 Zrotation Xrotation Yrotation
                JOINT LeftArm
                {
                    OFFSET 12.409162 0.000000 0.000000
                    CHANNELS 3 Zrotation Xrotation Yrotation
                    JOINT LeftForeArm
                    {
                        OFFSET 32.111938 0.000000 0.000000
                        CHANNELS 3 Zrotation Xrotation Yrotation
                        JOINT LeftHand
                        {
                            OFFSET 25.320286 0.000000 0.000000
                            CHANNELS 3 Zrotation Xrotation Yrotation
                            End Site
                            {
                                OFFSET 15.090670 0.000000 0.000000
                            }
                        }
                    }
                }
            }
            JOINT RightShoulder
            {
                OFFSET -4.019371 20.418900 0.142539
                CHANNELS 3 Zrotation Xrotation Yrotation
                JOINT RightArm
                {
                    OFFSET -12.409162 0.000000 0.000000
                    CHANNELS 3 Zrotation Xrotation Yrotation
                    JOINT RightForeArm
                    {
                        OFFSET -32.111938 0.000000 0.000000
                        CHANNELS 3 Zrotation Xrotation Yrotation
                        JOINT RightHand
                        {
                            OFFSET -25.320286 0.000000 0.000000
                            CHANNELS 3 Zrotation Xrotation Yrotation
                            End Site
                            {
                                OFFSET -15.090670 0.000000 0.000000
                            }
                        }
                    }
                }
            }
        }
    }
    JOINT LeftUpLeg
    {
        OFFSET 10.060447 0.000000 0.000000
        CHANNELS 3 Zrotation Xrotation Yrotation
        JOINT LeftLeg
        {
            OFFSET -0.000000 -49.683781 0.000000
            CHANNELS 3 Zrotation Xrotation Yrotation
            JOINT LeftFoot
            {
                OFFSET -0.000000 -37.035061 0.000000
                CHANNELS 3 Zrotation Xrotation Yrotation
                JOINT LeftToeBase
                {
                    OFFSET -0.000000 -6.539289 15.090670
                    CHANNELS 3 Zrotation Xrotation Yrotation
                    End Site
                    {
                        OFFSET -0.000000 0.000000 4.024179
                    }
                }
            }
        }
    }
    JOINT RightUpLeg
    {
        OFFSET -10.060447 0.000000 0.000000
        CHANNELS 3 Zrotation Xrotation Yrotation
        JOINT RightLeg
        {
            OFFSET -0.000000 -49.683781 0.000000
            CHANNELS 3 Zrotation Xrotation Yrotation
            JOINT RightFoot
            {
                OFFSET -0.000000 -37.035061 0.000000
                CHANNELS 3 Zrotation Xrotation Yrotation
                JOINT RightToeBase
                {
                    OFFSET -0.000000 -6.539289 15.090670
                    CHANNELS 3 Zrotation Xrotation Yrotation
                    End Site
                    {
                        OFFSET -0.000000 0.000000 4.024179
                    }
                }
            }
        }
    }
}
MOTION
Frames:    9
Frame Time:    0.008333
-4.686404    97.241882    82.440613    -0.411733    -1.596402    -179.277374    0.498380    3.583520    0.120391    -0.958329    -1.407241    0.124483    6.107484    8.195542    8.982912    -8.314619    -1.106821    7.635066    24.272076    -3.841049    -1.708344    -19.510651    1.247782    2.255964    3.039224    -0.615086    0.830986    -4.117873    -0.203948    -12.005656    -21.047964    -0.552915    -8.102466    21.417238    3.018626    10.991617    1.810701    5.121458    -4.400830    -5.321020    5.384019    -4.174980    4.010744    -5.507526    -1.196595    -1.632019    8.191439    0.959800    -0.126896    -4.808860    2.279536    0.000000    0.000000    0.000000    -3.272862    -5.475826    -7.319920    0.677250    10.704682    -0.717975    -1.355525    -7.245058    -6.584664    0.000000    0.000000    0.000000    
-4.691675    97.242088    82.429901    -0.386156    -1.586884    -179.326080    0.524566    3.590776    0.129933    -0.936676    -1.400146    0.134783    6.083147    8.158311    8.967753    -8.271574    -1.029835    7.630990    24.254478    -3.860502    -1.689463    -19.527205    1.239987    2.225038    3.015870    -0.559224    0.849071    -4.271423    -0.132831    -11.988494    -21.056452    -0.551740    -8.094275    21.472700    2.890071    11.008191    1.889932    5.123196    -4.319127    -5.456234    5.390014    -4.125249    4.039183    -5.472464    -1.134105    -1.631972    8.178413    0.915842    -0.128219    -4.851631    2.310834    0.000000    0.000000    0.000000    -3.245379    -5.451914    -7.257101    0.685017    10.663149    -0.762382    -1.343338    -7.214324    -6.561361    0.000000    0.000000    0.000000    
-4.704868    97.241882    82.417381    -0.399102    -1.588006    -179.368683    0.534176    3.584462    0.132966    -0.960949    -1.406461    0.138363    6.081432    8.198857    8.940885    -8.219507    -1.034066    7.612893    24.279058    -3.933821    -1.604860    -19.576912    1.312253    2.116777    2.990159    -0.516375    0.910647    -4.351505    -0.084985    -11.938734    -21.017225    -0.535843    -8.053455    21.500116    2.896758    11.030482    1.910187    5.092446    -4.331583    -5.384889    5.354414    -4.055668    4.015320    -5.448254    -1.109454    -1.615858    8.153670    0.969097    -0.123146    -4.841022    2.264981    0.000000    0.000000    0.000000    -3.266201    -5.431932    -7.229004    0.692486    10.619255    -0.739939    -1.456518    -7.225173    -6.500133    0.000000    0.000000    0.000000    
-4.719084    97.244110    82.407188    -0.411256    -1.610884    -179.419617    0.532332    3.549569    0.152815    -0.961026    -1.381814    0.157788    6.061868    8.162670    8.907508    -8.136070    -0.968883    7.594653    24.287617    -3.943805    -1.622985    -19.627298    1.324992    2.109666    2.955241    -0.540124    0.914752    -4.350657    -0.109053    -11.929103    -21.001604    -0.529465    -8.051039    21.542900    2.858689    11.050797    1.958869    5.051798    -4.297300    -5.300235    5.306620    -3.938159    3.994787    -5.439238    -1.062998    -1.608376    8.102777    1.065729    -0.139932    -4.807993    2.198001    0.000000    0.000000    0.000000    -3.289102    -5.440278    -7.181416    0.705308    10.580031    -0.767627    -1.332536    -7.185067    -6.511559    0.000000    0.000000    0.000000    
-4.728706    97.248581    82.396652    -0.422020    -1.629188    -179.459274    0.536087    3.526321    0.163180    -0.971569    -1.374902    0.168025    6.050815    8.152470    8.873063    -8.076332    -0.930566    7.570623    24.277937    -3.899934    -1.688391    -19.656128    1.300281    2.166443    2.932506    -0.590826    0.876611    -4.327798    -0.162167    -11.897372    -20.975586    -0.527078    -8.049106    21.582874    2.842841    11.091093    1.962987    5.092370    -4.310774    -4.913523    5.332295    -3.891622    3.978833    -5.428637    -1.027121    -1.603611    8.078442    0.990395    -0.115243    -4.800618    2.257966    0.000000    0.000000    0.000000    -3.308361    -5.443082    -7.144698    0.722597    10.546836    -0.769512    -1.331401    -7.165191    -6.508022    0.000000    0.000000    0.000000    
-4.746634    97.249756    82.386902    -0.460946    -1.662868    -179.496918    0.512891    3.485757    0.171544    -0.980689    -1.382343    0.175475    6.048550    8.197938    8.838696    -8.024803    -0.947593    7.543990    24.283384    -3.957689    -1.631637    -19.714451    1.371871    2.073709    2.896630    -0.532041    0.900033    -4.212512    -0.117721    -11.841891    -20.983290    -0.568047    -8.021545    21.654530    2.978872    11.117456    1.946710    5.040902    -4.358424    -4.773744    5.274441    -3.846797    3.923336    -5.433326    -1.008379    -1.587933    8.040225    1.012567    -0.127519    -4.779636    2.265382    0.000000    0.000000    0.000000    -3.362592    -5.460713    -7.099041    0.737563    10.458080    -1.319094    -1.239500    -7.092491    -5.932955    0.000000    0.000000    0.000000    
-4.759213    97.258926    82.379089    -0.466397    -1.656041    -179.512146    0.527490    3.506217    0.163537    -0.977976    -1.395363    0.167870    6.035244    8.155336    8.802258    -7.992425    -0.834566    7.517255    24.238594    -3.967222    -1.621606    -19.727854    1.394235    2.054701    2.875595    -0.484577    0.903768    -4.143492    -0.077154    -11.850572    -20.951643    -0.544968    -8.005804    21.650549    2.859153    11.146988    2.026588    5.111852    -4.317798    -4.678412    5.344210    -3.839843    3.902932    -5.408861    -0.994606    -1.566541    8.017231    1.044775    -0.132618    -4.755400    2.228370    0.000000    0.000000    0.000000    -3.380323    -5.429709    -7.067364    0.760609    10.408165    -1.356598    -1.214928    -7.048228    -5.916212    0.000000    0.000000    0.000000    
-4.768394    97.260681    82.362305    -0.492172    -1.685068    -179.558548    0.509221    3.461532    0.174873    -0.978862    -1.391684    0.178459    6.046964    8.175609    8.773568    -7.984315    -0.814335    7.490152    24.218081    -3.963689    -1.625336    -19.747583    1.365449    2.030998    2.840219    -0.428670    0.922723    -4.106874    -0.023167    -11.907063    -20.933813    -0.554184    -7.981987    21.674627    2.916455    11.174553    2.040701    5.099813    -4.342741    -4.510431    5.323504    -3.737368    3.869568    -5.398440    -0.948588    -1.556998    7.971548    1.054979    -0.145525    -4.738585    2.224301    0.000000    0.000000    0.000000    -3.409191    -5.434650    -7.018861    0.764223    10.362889    -1.333121    -1.217063    -7.043962    -5.932647    0.000000    0.000000    0.000000    
-4.777335    97.263420    82.349960    -0.496511    -1.692985    -179.581711    0.519879    3.448236    0.172543    -0.984532    -1.382309    0.176198    6.040895    8.139427    8.741754    -7.931521    -0.736663    7.468568    24.186426    -3.953947    -1.598787    -19.751583    1.360612    1.983134    2.807775    -0.417980    0.931037    -4.040294    -0.016893    -11.976075    -20.965340    -0.601605    -7.970564    21.760138    2.965273    11.191930    2.046166    5.102974    -4.356759    -4.216691    5.313324    -3.621889    3.854863    -5.380154    -0.904594    -1.537785    7.937241    1.055331    -0.145658    -4.716900    2.191347    0.000000    0.000000    0.000000    -3.418382    -5.415380    -6.983634    0.774270    10.315009    -1.353682    -1.326742    -7.049557    -5.872377    0.000000    0.000000    0.000000    
